HIERARCHY
ROOT Hips
{
	OFFSET -0.001795 -0.223333 0.028219
	CHANNELS 6 Xposition Yposition Zposition Zrotation Yrotation Xrotation 
	JOINT LeftUpLeg
	{
		OFFSET 0.069520 -0.091406 -0.006815
		CHANNELS 3 Zrotation Yrotation Xrotation
		JOINT LeftLeg
		{
			OFFSET 0.034277 -0.375199 -0.004496
			CHANNELS 3 Zrotation Yrotation Xrotation
			JOINT LeftFoot
			{
				OFFSET -0.013596 -0.397961 -0.043693
				CHANNELS 3 Zrotation Yrotation Xrotation
				JOINT LeftToe
				{
					OFFSET 0.026358 -0.055791 0.119288
					CHANNELS 3 Zrotation Yrotation Xrotation
					End Site
					{
						OFFSET 0.000000 0.000000 0.000000
					}
				}
			}
		}
	}
	JOINT RightUpLeg
	{
		OFFSET -0.067670 -0.090522 -0.004320
		CHANNELS 3 Zrotation Yrotation Xrotation
		JOINT RightLeg
		{
			OFFSET -0.038290 -0.382569 -0.008850
			CHANNELS 3 Zrotation Yrotation Xrotation
			JOINT RightFoot
			{
				OFFSET 0.015774 -0.398415 -0.042312
				CHANNELS 3 Zrotation Yrotation Xrotation
				JOINT RightToe
				{
					OFFSET -0.025372 -0.048144 0.123348
					CHANNELS 3 Zrotation Yrotation Xrotation
					End Site
					{
						OFFSET 0.000000 0.000000 0.000000
					}
				}
			}
		}
	}
	JOINT Spine
	{
		OFFSET -0.002533 0.108963 -0.026696
		CHANNELS 3 Zrotation Yrotation Xrotation
		JOINT Spine1
		{
			OFFSET 0.005487 0.135180 0.001092
			CHANNELS 3 Zrotation Yrotation Xrotation
			JOINT Spine2
			{
				OFFSET 0.001457 0.052922 0.025425
				CHANNELS 3 Zrotation Yrotation Xrotation
				JOINT Neck
				{
					OFFSET -0.002778 0.213870 -0.042857
					CHANNELS 3 Zrotation Yrotation Xrotation
					JOINT Head
					{
						OFFSET 0.005152 0.064970 0.051349
						CHANNELS 3 Zrotation Yrotation Xrotation
						End Site
						{
							OFFSET 0.000000 0.000000 0.000000
						}
					}
				}
				JOINT LeftShoulder
				{
					OFFSET 0.078845 0.121749 -0.034090
					CHANNELS 3 Zrotation Yrotation Xrotation
					JOINT LeftArm
					{
						OFFSET 0.090977 0.030469 -0.008868
						CHANNELS 3 Zrotation Yrotation Xrotation
						JOINT LeftForeArm
						{
							OFFSET 0.259612 -0.012772 -0.027456
							CHANNELS 3 Zrotation Yrotation Xrotation
							JOINT LeftHand
							{
								OFFSET 0.249234 0.008986 -0.001171
								CHANNELS 3 Zrotation Yrotation Xrotation
								End Site
								{
									OFFSET 0.000000 0.000000 0.000000
								}
							}
						}
					}
				}
				JOINT RightShoulder
				{
					OFFSET -0.081759 0.118833 -0.038615
					CHANNELS 3 Zrotation Yrotation Xrotation
					JOINT RightArm
					{
						OFFSET -0.096012 0.032551 -0.009143
						CHANNELS 3 Zrotation Yrotation Xrotation
						JOINT RightForeArm
						{
							OFFSET -0.253742 -0.013329 -0.021401
							CHANNELS 3 Zrotation Yrotation Xrotation
							JOINT RightHand
							{
								OFFSET -0.255298 0.007772 -0.005559
								CHANNELS 3 Zrotation Yrotation Xrotation
								End Site
								{
									OFFSET 0.000000 0.000000 0.000000
								}
							}
						}
					}
				}
			}
		}
	}
}
MOTION
Frames: 9
Frame Time: 0.050000
0.000000 0.943377 0.000000 -0.603057 -0.318449 5.549290 4.371909 -0.314416 -3.880195 5.246522 -0.679334 1.404039 0.163461 4.232386 10.093699 0.000000 0.000000 0.000000 -1.719065 0.507054 -5.200245 -2.990326 0.245229 -0.962764 6.168861 5.152240 15.427548 0.000000 0.000000 0.000000 4.052005 0.128147 -3.114822 -1.920032 0.926208 -3.640010 -2.919586 3.731609 3.980104 3.612019 -1.711073 -7.687978 0.000000 0.000000 0.000000 -15.249008 -1.811234 -1.392784 -56.291554 -7.867612 -2.917568 -9.805066 -15.192052 1.746451 0.000000 0.000000 0.000000 14.704098 -4.936744 -3.081594 62.580059 3.813299 -3.781937 7.572986 18.377835 1.811058 0.000000 0.000000 0.000000 
0.000371 0.942415 0.001558 -0.970690 -1.014800 6.177949 4.431269 -0.276966 -3.145480 5.689391 -0.567499 -0.599283 0.513323 4.776825 10.183991 0.000000 0.000000 0.000000 -1.825519 0.543062 -5.581775 -2.240679 0.137101 -1.526304 6.536232 5.662877 15.529493 0.000000 0.000000 0.000000 5.085234 0.183956 -3.843816 -2.708524 1.257958 -3.699859 -3.118919 4.605566 3.829287 2.686767 -1.000114 -7.857714 0.000000 0.000000 0.000000 -15.727188 -1.215202 -1.861031 -55.682996 -8.079103 -2.744542 -10.325295 -14.468714 1.710709 0.000000 0.000000 0.000000 14.410538 -5.605232 -3.305888 63.638710 3.308919 -4.027159 7.507136 18.386464 1.819391 0.000000 0.000000 0.000000 
0.000517 0.942619 0.002654 -0.573038 -0.363100 5.980579 4.180409 -0.274297 -3.036695 5.484652 -0.543923 -0.578382 0.145746 4.231133 10.207534 0.000000 0.000000 0.000000 -2.221161 0.535164 -5.567601 -2.229848 0.179442 -0.845749 6.127140 5.196537 15.201598 0.000000 0.000000 0.000000 4.573623 0.163976 -3.629000 -2.394708 1.130447 -5.297936 -3.479502 4.540645 4.783723 2.140890 -0.678092 -7.223999 0.000000 0.000000 0.000000 -15.317821 -1.538585 -1.684979 -55.770338 -7.884163 -2.950717 -10.134192 -13.298093 1.548575 0.000000 0.000000 0.000000 15.509784 -4.842801 -2.930331 62.210132 3.051481 -4.253963 7.261001 17.561739 1.704414 0.000000 0.000000 0.000000 
0.000598 0.942386 0.003582 -0.583376 -0.359268 6.489825 4.405804 -0.303468 -3.487947 5.104887 -0.497752 -0.653538 0.170646 4.258634 10.170422 0.000000 0.000000 0.000000 -2.294165 0.595407 -6.286553 -2.101712 0.190093 -0.444436 6.062383 5.143954 15.092073 0.000000 0.000000 0.000000 4.532032 0.181296 -3.942443 -2.727391 1.267871 -4.971165 -3.078846 4.500312 3.730508 1.620194 -0.490885 -5.814227 0.000000 0.000000 0.000000 -14.917065 -0.920176 -1.928530 -56.697835 -8.232688 -2.750352 -9.643020 -12.313753 1.378090 0.000000 0.000000 0.000000 14.080544 -5.384476 -3.124872 62.818783 2.548190 -4.361289 8.427832 17.287593 1.819122 0.000000 0.000000 0.000000 
0.000556 0.942740 0.004279 -0.508332 0.219827 6.466025 4.207444 -0.305101 -3.434067 5.444184 -0.510876 -0.862630 -0.141980 3.830457 10.287249 0.000000 0.000000 0.000000 -2.240006 0.581905 -6.134600 -2.246402 0.208122 -0.422385 5.791718 4.725105 15.119685 0.000000 0.000000 0.000000 4.238591 0.173738 -3.888796 -2.122054 1.022656 -5.098525 -3.503797 4.332247 3.567117 1.470644 -0.332711 -6.117055 0.000000 0.000000 0.000000 -14.451770 -1.004329 -1.867155 -56.784140 -8.563751 -2.600409 -9.762509 -11.364138 1.277521 0.000000 0.000000 0.000000 13.944392 -5.635171 -3.198046 62.740890 2.496461 -4.344680 8.108214 16.707579 1.711653 0.000000 0.000000 0.000000 
0.000528 0.943055 0.004782 -0.415955 0.400158 6.685829 4.191554 -0.313167 -3.515546 5.337165 -0.473737 -1.164113 -0.270913 3.689375 10.461923 0.000000 0.000000 0.000000 -2.314025 0.587569 -6.212965 -2.267498 0.199957 -0.604571 5.721635 4.564586 15.246010 0.000000 0.000000 0.000000 4.027436 0.170703 -3.910536 -2.127863 1.029471 -5.590090 -3.337365 4.386922 3.529633 1.252135 -0.217489 -5.736927 0.000000 0.000000 0.000000 -14.444689 -0.765725 -2.000330 -56.842885 -8.705356 -2.534459 -9.835833 -10.905958 1.230363 0.000000 0.000000 0.000000 13.677990 -5.622800 -3.152725 62.771653 2.380521 -4.376385 7.992914 16.378773 1.656761 0.000000 0.000000 0.000000 
0.000583 0.943211 0.005122 -0.316701 0.676674 6.734503 4.017482 -0.319135 -3.579448 5.506655 -0.483275 -1.220604 -0.422107 3.488266 10.528134 0.000000 0.000000 0.000000 -2.195959 0.577878 -6.080241 -2.636533 0.224461 -0.813613 5.584819 4.352947 15.256407 0.000000 0.000000 0.000000 3.852174 0.163966 -3.848791 -1.932688 0.952838 -5.565440 -3.508353 4.151357 3.434429 1.360416 -0.263346 -6.019115 0.000000 0.000000 0.000000 -14.092649 -0.389274 -2.112549 -57.060146 -8.850539 -2.484646 -10.000085 -11.214985 1.280430 0.000000 0.000000 0.000000 13.710342 -5.680336 -3.191100 62.739522 2.469407 -4.321617 7.587678 16.165121 1.579462 0.000000 0.000000 0.000000 
0.000791 0.943273 0.005370 -0.368323 0.734818 6.845391 3.892824 -0.338414 -3.894749 5.812882 -0.541710 -0.872159 -0.413706 3.493180 10.479209 0.000000 0.000000 0.000000 -2.145653 0.566112 -5.919626 -2.642421 0.195887 -1.279933 5.601766 4.314318 15.416302 0.000000 0.000000 0.000000 3.766750 0.172670 -3.990859 -1.889687 0.935055 -5.503382 -3.520706 4.406991 3.366437 1.441621 -0.352841 -5.664169 0.000000 0.000000 0.000000 -13.977056 -0.192197 -2.237136 -56.978241 -9.366716 -2.235799 -10.514295 -11.590164 1.367229 0.000000 0.000000 0.000000 13.975950 -5.927650 -3.292927 62.430355 2.636411 -4.206128 7.610301 15.870578 1.555466 0.000000 0.000000 0.000000 
0.001031 0.943385 0.005615 -0.336773 0.654367 6.926867 3.694531 -0.336910 -3.853318 6.054242 -0.550899 -1.045160 -0.389339 3.559354 10.575426 0.000000 0.000000 0.000000 -2.229264 0.548537 -5.705825 -2.598377 0.157503 -1.821147 5.689646 4.372251 15.595391 0.000000 0.000000 0.000000 3.700658 0.176514 -4.056205 -1.785528 0.891229 -5.534585 -3.519099 4.517025 3.356017 1.535519 -0.430051 -5.569548 0.000000 0.000000 0.000000 -13.964842 -0.126663 -2.277179 -57.324608 -9.946883 -1.974120 -10.351266 -11.952071 1.393242 0.000000 0.000000 0.000000 14.068922 -6.026506 -3.339700 62.210874 2.882428 -4.067565 7.569301 15.807937 1.545424 0.000000 0.000000 0.000000 
